<?xml version="1.0" encoding="UTF-8"?><svg id="Artwork" xmlns="http://www.w3.org/2000/svg" xmlns:xlink="http://www.w3.org/1999/xlink" viewBox="0 0 1000 1000"><defs><linearGradient id="linear-gradient" x1="200" y1="500" x2="800" y2="500" gradientUnits="userSpaceOnUse"><stop offset="0" stop-color="#ee3129"/><stop offset="1" stop-color="#c31414"/></linearGradient></defs><path d="m796.68,509.13l-95.34,113.62c-2.7,3.22-6.68,5.07-10.88,5.07H214.2c-7.84,0-14.2-6.36-14.2-14.2v-227.24c0-7.84,6.36-14.2,14.2-14.2h476.26c4.2,0,8.18,1.86,10.88,5.07l95.34,113.62c4.43,5.28,4.43,12.98,0,18.26Z" fill="url(#linear-gradient)"/><path d="m285.21,474.41c0,11.19,5.6,19.64,16.8,25.35,4.86,2.42,14.15,5.44,27.89,9.03,7.71,1.9,13.44,4.04,17.19,6.42,3.75,2.37,5.63,5.57,5.63,9.58,0,4.44-2.06,7.91-6.18,10.38-4.12,2.49-9.67,3.73-16.64,3.73-14.58,0-29.11-4.6-43.58-13.79v19.64c8.03,4.02,15.3,7.03,21.8,9.04,6.49,2,13.65,3,21.47,3,12.05,0,22.03-2.8,29.95-8.4,7.92-5.6,11.88-13.41,11.88-23.46,0-4.32-.79-8.24-2.38-11.72-1.59-3.48-3.57-6.36-5.94-8.64-2.38-2.27-5.53-4.32-9.43-6.18-3.91-1.84-7.6-3.33-11.09-4.44-3.49-1.11-7.71-2.24-12.68-3.4-4.33-1.06-7.76-1.96-10.3-2.7-2.53-.74-5.15-1.72-7.84-2.93-2.7-1.21-4.65-2.62-5.86-4.2-1.22-1.59-1.82-3.38-1.82-5.39,0-4.64,2.22-8.22,6.65-10.69,4.44-2.49,10.19-3.73,17.27-3.73,12.78,0,25.77,4.71,38.99,14.11v-19.65c-11.41-8.14-24.41-12.2-38.99-12.2-12.05,0-22.19,2.8-30.43,8.4-8.24,5.6-12.36,13.21-12.36,22.83Zm118.5-29.8h-16.48v110.94h18.23v-74.48l35.98,72.89c.48.97,1.47,1.58,2.55,1.58h7.72c1.08,0,2.07-.61,2.54-1.58l36.14-72.9v74.48h18.23v-108.1c0-1.57-1.27-2.84-2.84-2.84h-15.54l-42.15,84.32-41.84-82.76c-.48-.96-1.46-1.56-2.53-1.56Zm194.49,93.5h-53.73v-93.5h-18.7v90.26c0,2.02.54,4,1.56,5.74l7.1,12.12c1.02,1.74,2.89,2.81,4.9,2.81h58.87c.82,0,1.6-.35,2.14-.97l5.14-5.88c.94-1.07.94-2.67,0-3.74l-5.14-5.88c-.54-.62-1.32-.97-2.14-.97Z" fill="#fff"/></svg>